<svg 
 xmlns="http://www.w3.org/2000/svg"
 xmlns:xlink="http://www.w3.org/1999/xlink"
 width="15px" height="13px">
<defs>
<filter id="Filter_0">
    <feFlood flood-color="rgb(255, 255, 255)" flood-opacity="1" result="floodOut" />
    <feComposite operator="atop" in="floodOut" in2="SourceGraphic" result="compOut" />
    <feBlend mode="normal" in="compOut" in2="SourceGraphic" />
</filter>

</defs>
<g filter="url(#Filter_0)">
<path fill-rule="evenodd"  fill="rgb(0, 0, 0)"
 d="M13.906,1.277 C13.166,0.454 12.139,0.000 11.016,0.000 C9.435,0.000 8.434,0.926 7.873,1.703 C7.728,1.904 7.604,2.107 7.500,2.297 C7.396,2.107 7.272,1.904 7.127,1.703 C6.566,0.926 5.565,0.000 3.984,0.000 C2.861,0.000 1.834,0.454 1.094,1.277 C0.389,2.063 -0.000,3.115 -0.000,4.240 C-0.000,5.464 0.487,6.603 1.534,7.824 C2.469,8.914 3.814,10.039 5.372,11.341 C5.952,11.826 6.552,12.328 7.191,12.877 L7.211,12.893 C7.293,12.964 7.397,13.000 7.500,13.000 C7.603,13.000 7.707,12.964 7.789,12.893 L7.809,12.877 C8.448,12.328 9.048,11.827 9.629,11.341 C11.186,10.039 12.531,8.915 13.466,7.824 C14.513,6.603 15.000,5.464 15.000,4.240 C15.000,3.115 14.611,2.063 13.906,1.277 ZM9.058,10.685 C8.558,11.103 8.043,11.534 7.500,11.997 C6.957,11.534 6.442,11.103 5.942,10.685 C2.893,8.136 0.879,6.453 0.879,4.240 C0.879,3.325 1.190,2.475 1.754,1.847 C2.324,1.212 3.117,0.862 3.984,0.862 C5.189,0.862 5.968,1.590 6.409,2.201 C6.805,2.749 7.012,3.302 7.082,3.514 C7.141,3.691 7.310,3.811 7.500,3.811 C7.690,3.811 7.859,3.691 7.918,3.514 C7.988,3.302 8.195,2.749 8.591,2.201 C9.032,1.590 9.811,0.862 11.016,0.862 C11.883,0.862 12.676,1.212 13.246,1.847 C13.810,2.475 14.121,3.325 14.121,4.240 C14.121,6.453 12.107,8.136 9.058,10.685 Z"/>
</g>
</svg>