<svg 
 xmlns="http://www.w3.org/2000/svg"
 xmlns:xlink="http://www.w3.org/1999/xlink"
 width="17px" height="17px">
<path fill-rule="evenodd"  fill="rgb(121, 121, 121)"
 d="M16.995,16.998 L16.995,16.999 L13.477,16.999 L13.477,11.474 C13.477,10.157 13.450,8.469 11.645,8.469 C9.813,8.469 9.532,9.899 9.532,11.379 L9.532,16.998 L6.013,16.998 L6.013,5.650 L9.393,5.650 L9.393,7.197 L9.442,7.197 C9.912,6.306 11.062,5.365 12.777,5.365 C16.342,5.365 16.998,7.714 16.998,10.764 L16.998,16.998 L16.995,16.998 ZM2.041,4.102 C0.914,4.102 -0.000,3.169 -0.000,2.042 C-0.000,0.915 0.914,0.001 2.041,0.001 C3.167,0.001 4.082,0.915 4.082,2.042 C4.082,3.169 3.168,4.102 2.041,4.102 ZM3.804,16.999 L0.280,16.999 L0.280,5.650 L3.804,5.650 L3.804,16.999 Z"/>
</svg>