<svg 
 xmlns="http://www.w3.org/2000/svg"
 xmlns:xlink="http://www.w3.org/1999/xlink"
 width="17px" height="13px">
<path fill-rule="evenodd"  fill="rgb(121, 121, 121)"
 d="M15.911,8.434 C15.793,8.402 15.672,8.377 15.548,8.360 L15.548,5.280 L15.548,4.265 L14.512,4.265 L13.061,4.265 C13.061,3.033 12.038,2.030 10.780,2.030 C9.523,2.030 8.500,3.033 8.500,4.265 L1.933,4.265 L2.719,-0.001 L17.000,2.525 L15.911,8.434 ZM10.780,5.484 C10.093,5.484 9.536,4.938 9.536,4.265 C9.536,3.592 10.093,3.046 10.780,3.046 C11.467,3.046 12.024,3.592 12.024,4.265 C12.024,4.938 11.467,5.484 10.780,5.484 ZM10.780,6.499 C11.665,6.499 12.431,6.003 12.809,5.280 L14.512,5.280 L14.512,8.395 C13.210,8.675 12.232,9.812 12.232,11.171 C12.232,11.867 12.489,12.504 12.914,12.999 L0.000,12.999 L0.000,5.280 L8.752,5.280 C9.130,6.003 9.896,6.499 10.780,6.499 ZM7.256,6.702 C5.882,6.702 4.768,7.794 4.768,9.140 C4.768,10.486 5.882,11.577 7.256,11.577 C8.630,11.577 9.744,10.486 9.744,9.140 C9.744,7.793 8.630,6.702 7.256,6.702 ZM15.134,9.342 C16.164,9.342 16.999,10.160 16.999,11.170 C16.999,12.179 16.164,12.998 15.134,12.998 C14.103,12.998 13.268,12.179 13.268,11.170 C13.268,10.160 14.103,9.342 15.134,9.342 Z"/>
</svg>