<svg 
 xmlns="http://www.w3.org/2000/svg"
 xmlns:xlink="http://www.w3.org/1999/xlink"
 width="14px" height="13px">
<defs>
<linearGradient id="PSgrad_0" x1="0%" x2="100%" y1="0%" y2="0%">
  <stop offset="0%" stop-color="rgb(253,200,48)" stop-opacity="1" />
  <stop offset="100%" stop-color="rgb(243,115,53)" stop-opacity="1" />
</linearGradient>

</defs>
<path fill-rule="evenodd"  fill="rgb(17, 17, 17)"
 d="M12.945,3.259 L12.149,4.635 C12.095,4.729 12.006,4.796 11.903,4.825 C11.798,4.852 11.688,4.838 11.595,4.784 L10.218,3.989 C9.906,3.808 9.967,3.338 10.316,3.245 L10.790,3.118 C9.849,1.714 8.245,0.812 6.499,0.812 C5.326,0.812 4.227,1.198 3.321,1.926 C3.146,2.066 2.890,2.039 2.749,1.864 C2.609,1.689 2.636,1.433 2.811,1.292 C3.864,0.447 5.139,-0.000 6.499,-0.000 C8.613,-0.000 10.551,1.141 11.614,2.897 L12.488,2.663 C12.840,2.570 13.124,2.947 12.945,3.259 ZM2.150,4.467 L1.663,4.186 C1.454,4.751 1.342,5.352 1.342,5.970 C1.342,8.155 2.723,10.107 4.779,10.827 C4.991,10.901 5.103,11.133 5.029,11.345 C4.955,11.555 4.726,11.668 4.511,11.594 C2.129,10.759 0.530,8.499 0.530,5.970 C0.530,5.206 0.675,4.465 0.950,3.774 L0.203,3.343 C-0.109,3.163 -0.049,2.693 0.300,2.599 L1.836,2.188 C2.058,2.131 2.276,2.259 2.334,2.475 L2.746,4.010 C2.839,4.361 2.462,4.647 2.150,4.467 ZM3.250,5.958 C3.250,4.166 4.707,2.708 6.499,2.708 C8.292,2.708 9.749,4.166 9.749,5.958 C9.749,7.751 8.292,9.208 6.499,9.208 C4.707,9.208 3.250,7.751 3.250,5.958 ZM6.906,7.719 L6.906,7.521 C7.299,7.381 7.583,7.009 7.583,6.568 C7.583,6.008 7.127,5.552 6.567,5.552 L6.432,5.552 C6.320,5.552 6.229,5.461 6.229,5.349 C6.229,5.237 6.320,5.146 6.432,5.146 L7.176,5.146 C7.401,5.146 7.583,4.964 7.583,4.740 C7.583,4.515 7.401,4.333 7.176,4.333 L6.906,4.333 L6.906,4.198 C6.906,3.974 6.724,3.792 6.499,3.792 C6.275,3.792 6.093,3.974 6.093,4.198 L6.093,4.396 C5.700,4.536 5.416,4.908 5.416,5.349 C5.416,5.909 5.872,6.364 6.432,6.364 L6.567,6.364 C6.679,6.364 6.770,6.455 6.770,6.568 C6.770,6.680 6.679,6.771 6.567,6.771 L5.822,6.771 C5.598,6.771 5.416,6.953 5.416,7.177 C5.416,7.401 5.598,7.583 5.822,7.583 L6.093,7.583 L6.093,7.719 C6.093,7.943 6.275,8.125 6.499,8.125 C6.724,8.125 6.906,7.943 6.906,7.719 ZM7.007,10.187 C7.264,9.931 7.701,10.113 7.701,10.474 L7.701,10.980 C9.966,10.437 11.657,8.399 11.657,5.970 C11.657,5.746 11.839,5.564 12.063,5.564 C12.287,5.564 12.469,5.746 12.469,5.970 C12.469,8.851 10.419,11.261 7.701,11.818 L7.701,12.594 C7.701,12.957 7.261,13.135 7.007,12.881 L5.947,11.821 C5.789,11.662 5.789,11.405 5.947,11.246 L7.007,10.187 Z"/>
<path fill="url(#PSgrad_0)"
 d="M12.945,3.259 L12.149,4.635 C12.095,4.729 12.006,4.796 11.903,4.825 C11.798,4.852 11.688,4.838 11.595,4.784 L10.218,3.989 C9.906,3.808 9.967,3.338 10.316,3.245 L10.790,3.118 C9.849,1.714 8.245,0.812 6.499,0.812 C5.326,0.812 4.227,1.198 3.321,1.926 C3.146,2.066 2.890,2.039 2.749,1.864 C2.609,1.689 2.636,1.433 2.811,1.292 C3.864,0.447 5.139,-0.000 6.499,-0.000 C8.613,-0.000 10.551,1.141 11.614,2.897 L12.488,2.663 C12.840,2.570 13.124,2.947 12.945,3.259 ZM2.150,4.467 L1.663,4.186 C1.454,4.751 1.342,5.352 1.342,5.970 C1.342,8.155 2.723,10.107 4.779,10.827 C4.991,10.901 5.103,11.133 5.029,11.345 C4.955,11.555 4.726,11.668 4.511,11.594 C2.129,10.759 0.530,8.499 0.530,5.970 C0.530,5.206 0.675,4.465 0.950,3.774 L0.203,3.343 C-0.109,3.163 -0.049,2.693 0.300,2.599 L1.836,2.188 C2.058,2.131 2.276,2.259 2.334,2.475 L2.746,4.010 C2.839,4.361 2.462,4.647 2.150,4.467 ZM3.250,5.958 C3.250,4.166 4.707,2.708 6.499,2.708 C8.292,2.708 9.749,4.166 9.749,5.958 C9.749,7.751 8.292,9.208 6.499,9.208 C4.707,9.208 3.250,7.751 3.250,5.958 ZM6.906,7.719 L6.906,7.521 C7.299,7.381 7.583,7.009 7.583,6.568 C7.583,6.008 7.127,5.552 6.567,5.552 L6.432,5.552 C6.320,5.552 6.229,5.461 6.229,5.349 C6.229,5.237 6.320,5.146 6.432,5.146 L7.176,5.146 C7.401,5.146 7.583,4.964 7.583,4.740 C7.583,4.515 7.401,4.333 7.176,4.333 L6.906,4.333 L6.906,4.198 C6.906,3.974 6.724,3.792 6.499,3.792 C6.275,3.792 6.093,3.974 6.093,4.198 L6.093,4.396 C5.700,4.536 5.416,4.908 5.416,5.349 C5.416,5.909 5.872,6.364 6.432,6.364 L6.567,6.364 C6.679,6.364 6.770,6.455 6.770,6.568 C6.770,6.680 6.679,6.771 6.567,6.771 L5.822,6.771 C5.598,6.771 5.416,6.953 5.416,7.177 C5.416,7.401 5.598,7.583 5.822,7.583 L6.093,7.583 L6.093,7.719 C6.093,7.943 6.275,8.125 6.499,8.125 C6.724,8.125 6.906,7.943 6.906,7.719 ZM7.007,10.187 C7.264,9.931 7.701,10.113 7.701,10.474 L7.701,10.980 C9.966,10.437 11.657,8.399 11.657,5.970 C11.657,5.746 11.839,5.564 12.063,5.564 C12.287,5.564 12.469,5.746 12.469,5.970 C12.469,8.851 10.419,11.261 7.701,11.818 L7.701,12.594 C7.701,12.957 7.261,13.135 7.007,12.881 L5.947,11.821 C5.789,11.662 5.789,11.405 5.947,11.246 L7.007,10.187 Z"/>
</svg>