<svg 
 xmlns="http://www.w3.org/2000/svg"
 xmlns:xlink="http://www.w3.org/1999/xlink"
 width="24px" height="20px">
<path fill-rule="evenodd"  fill="rgb(121, 121, 121)"
 d="M24.000,2.368 C23.108,2.769 22.157,3.035 21.165,3.165 C22.185,2.540 22.964,1.558 23.330,0.375 C22.379,0.957 21.329,1.368 20.210,1.597 C19.307,0.611 18.020,-0.000 16.616,-0.000 C13.891,-0.000 11.698,2.268 11.698,5.048 C11.698,5.448 11.731,5.832 11.812,6.198 C7.722,5.994 4.102,3.983 1.671,0.920 C1.246,1.675 0.997,2.540 0.997,3.471 C0.997,5.218 1.875,6.768 3.183,7.665 C2.392,7.649 1.617,7.414 0.960,7.043 C0.960,7.058 0.960,7.078 0.960,7.098 C0.960,9.551 2.665,11.588 4.902,12.057 C4.501,12.169 4.065,12.223 3.612,12.223 C3.297,12.223 2.979,12.205 2.680,12.137 C3.318,14.135 5.127,15.605 7.278,15.652 C5.604,16.995 3.478,17.805 1.177,17.805 C0.774,17.805 0.387,17.786 -0.000,17.735 C2.179,19.177 4.762,20.000 7.548,20.000 C16.602,20.000 21.552,12.308 21.552,5.640 C21.552,5.417 21.545,5.202 21.534,4.988 C22.511,4.277 23.331,3.389 24.000,2.368 Z"/>
</svg>