<svg 
 xmlns="http://www.w3.org/2000/svg"
 xmlns:xlink="http://www.w3.org/1999/xlink"
 width="21px" height="14px">
<defs>
<linearGradient id="PSgrad_0" x1="0%" x2="100%" y1="0%" y2="0%">
  <stop offset="0%" stop-color="rgb(253,200,48)" stop-opacity="1" />
  <stop offset="100%" stop-color="rgb(243,115,53)" stop-opacity="1" />
</linearGradient>

</defs>
<path fill-rule="evenodd"  fill="rgb(107, 162, 41)"
 d="M20.107,1.349 C19.538,0.366 18.920,0.186 17.661,0.117 C16.404,0.034 13.242,-0.000 10.503,-0.000 C7.758,-0.000 4.595,0.034 3.339,0.116 C2.083,0.186 1.463,0.365 0.889,1.349 C0.302,2.330 -0.000,4.020 -0.000,6.996 C-0.000,6.999 -0.000,7.000 -0.000,7.000 C-0.000,7.003 -0.000,7.004 -0.000,7.004 L-0.000,7.006 C-0.000,9.969 0.302,11.672 0.889,12.643 C1.463,13.626 2.082,13.804 3.338,13.887 C4.595,13.958 7.758,14.000 10.503,14.000 C13.242,14.000 16.404,13.958 17.662,13.888 C18.921,13.805 19.539,13.627 20.109,12.645 C20.701,11.673 21.000,9.970 21.000,7.007 C21.000,7.007 21.000,7.004 21.000,7.001 C21.000,7.001 21.000,6.999 21.000,6.997 C21.000,4.020 20.701,2.330 20.107,1.349 ZM7.875,10.818 L7.875,3.182 L14.437,7.000 L7.875,10.818 Z"/>
<path fill="url(#PSgrad_0)"
 d="M20.107,1.349 C19.538,0.366 18.920,0.186 17.661,0.117 C16.404,0.034 13.242,-0.000 10.503,-0.000 C7.758,-0.000 4.595,0.034 3.339,0.116 C2.083,0.186 1.463,0.365 0.889,1.349 C0.302,2.330 -0.000,4.020 -0.000,6.996 C-0.000,6.999 -0.000,7.000 -0.000,7.000 C-0.000,7.003 -0.000,7.004 -0.000,7.004 L-0.000,7.006 C-0.000,9.969 0.302,11.672 0.889,12.643 C1.463,13.626 2.082,13.804 3.338,13.887 C4.595,13.958 7.758,14.000 10.503,14.000 C13.242,14.000 16.404,13.958 17.662,13.888 C18.921,13.805 19.539,13.627 20.109,12.645 C20.701,11.673 21.000,9.970 21.000,7.007 C21.000,7.007 21.000,7.004 21.000,7.001 C21.000,7.001 21.000,6.999 21.000,6.997 C21.000,4.020 20.701,2.330 20.107,1.349 ZM7.875,10.818 L7.875,3.182 L14.437,7.000 L7.875,10.818 Z"/>
</svg>