<svg 
 xmlns="http://www.w3.org/2000/svg"
 xmlns:xlink="http://www.w3.org/1999/xlink"
 width="22px" height="22px">
<path fill-rule="evenodd"  fill="rgb(121, 121, 121)"
 d="M21.995,21.999 L21.995,22.000 L17.443,22.000 L17.443,14.849 C17.443,13.145 17.408,10.960 15.072,10.960 C12.700,10.960 12.337,12.811 12.337,14.726 L12.337,21.999 L7.782,21.999 L7.782,7.311 L12.157,7.311 L12.157,9.314 L12.221,9.314 C12.829,8.160 14.317,6.943 16.536,6.943 C21.150,6.943 22.000,9.983 22.000,13.931 L22.000,21.999 L21.995,21.999 ZM2.642,5.308 C1.183,5.308 -0.000,4.100 -0.000,2.642 C-0.000,1.183 1.183,-0.000 2.642,-0.000 C4.099,-0.000 5.283,1.183 5.284,2.642 C5.284,4.100 4.100,5.308 2.642,5.308 ZM4.924,22.000 L0.363,22.000 L0.363,7.312 L4.924,7.312 L4.924,22.000 Z"/>
</svg>