<svg 
 xmlns="http://www.w3.org/2000/svg"
 xmlns:xlink="http://www.w3.org/1999/xlink"
 width="20px" height="16px">
<path fill-rule="evenodd"  fill="rgb(121, 121, 121)"
 d="M20.000,1.892 C19.257,2.213 18.464,2.426 17.637,2.530 C18.487,2.030 19.137,1.244 19.442,0.298 C18.649,0.764 17.774,1.092 16.842,1.276 C16.089,0.487 15.017,-0.002 13.847,-0.002 C11.576,-0.002 9.748,1.812 9.748,4.037 C9.748,4.357 9.776,4.664 9.843,4.957 C6.435,4.794 3.418,3.184 1.392,0.734 C1.038,1.338 0.831,2.030 0.831,2.775 C0.831,4.173 1.562,5.413 2.652,6.130 C1.993,6.118 1.347,5.930 0.800,5.633 C0.800,5.645 0.800,5.661 0.800,5.677 C0.800,7.639 2.221,9.269 4.085,9.644 C3.751,9.734 3.387,9.777 3.010,9.777 C2.747,9.777 2.482,9.763 2.233,9.708 C2.765,11.307 4.272,12.483 6.065,12.521 C4.670,13.595 2.898,14.243 0.981,14.243 C0.645,14.243 0.322,14.228 -0.000,14.187 C1.816,15.341 3.968,15.999 6.290,15.999 C13.835,15.999 17.960,9.845 17.960,4.510 C17.960,4.332 17.954,4.160 17.945,3.989 C18.759,3.420 19.442,2.709 20.000,1.892 Z"/>
</svg>